# Blender v2.91.0 OBJ File: ''
# www.blender.org
mtllib cutPillarlowpoly.mtl
o Cube.001_Cube.029
v 0.993307 -0.494723 -0.992794
v -0.992111 -0.499867 -0.988780
v 0.994749 0.495130 -0.986611
v 0.815343 0.511565 -0.809652
v 0.817258 0.506354 0.815364
v 0.809695 1.168348 0.084112
v 0.807442 0.996625 -0.796862
v -0.803484 0.994804 -0.799779
v 0.572135 1.010546 -0.572200
v 0.810375 1.633674 -0.707456
v 0.501989 1.640424 -0.714430
v 0.559991 1.148891 -0.564607
v 0.576780 1.155775 0.109985
v 0.808938 1.634951 0.083851
v 0.808315 0.995200 0.807536
v 0.569269 1.016205 0.569439
v -0.994167 0.496484 -0.993190
v 0.011091 1.629226 -0.715895
v 0.508676 2.111162 -0.591853
v 0.509995 2.119809 -0.883274
v -0.570371 1.008736 -0.569844
v -0.810737 0.511645 -0.812019
v -0.304976 1.637576 -0.578236
v 0.764595 2.591830 -0.874731
v 0.763537 2.592704 -0.089059
v 0.544802 2.600632 -0.883193
v 0.573248 3.568478 -0.297492
v 0.577753 2.114583 -0.063369
v 0.759597 2.126371 -0.087459
v 0.659014 3.546189 -0.264299
v 0.577466 2.606251 -0.068345
v 0.838792 3.564779 -0.019612
v 0.671085 3.558126 -0.032535
v 0.659467 3.092467 0.502477
v 0.578265 3.574116 -0.043353
v 0.554239 2.611522 -0.572840
v 0.530043 3.077482 -0.883727
v -0.260718 3.075371 -0.886941
v 0.353477 3.568155 -0.577319
v 0.342776 3.085520 -0.609526
v 0.172807 3.578754 -0.572083
v 0.155036 3.555051 -0.625521
v -0.038790 2.130015 -0.580918
v -0.027224 2.130342 -0.879978
v -0.632562 3.562607 -0.863879
v -0.038236 2.590414 -0.586041
v -0.460347 3.551246 -0.612215
v -0.289647 2.117770 -0.880646
v -0.261196 2.604646 -0.885610
v -0.271672 3.084526 -0.625820
v -0.302309 2.125091 -0.575201
v -0.275184 2.594921 -0.574941
v -0.284555 3.061914 -0.577993
v 0.986820 -0.489759 0.994638
v -0.987944 -0.495049 0.993665
v 0.986099 0.491712 0.994516
v 0.575271 1.649441 0.105699
v -0.810888 0.507932 0.815672
v 0.191264 1.154482 0.588350
v 0.519335 1.628725 0.573032
v 0.202618 1.628091 0.593255
v 0.491216 2.117310 0.781129
v 0.492065 1.644652 0.780874
v -0.573442 1.147288 0.573660
v -0.292501 1.643963 0.784009
v 0.658022 3.091662 -0.265007
v 0.517701 2.128099 0.577084
v 0.478836 2.594576 0.579206
v 0.457938 3.075194 0.784714
v 0.457492 2.605312 0.785616
v 0.475797 3.092855 0.575689
v 0.116975 2.588104 0.585942
v 0.096990 2.122178 0.781393
v 0.100929 2.595711 0.784598
v -0.324227 3.074960 0.786227
v -0.589990 1.160829 -0.193148
v -0.489729 3.066386 -0.575077
v -0.636314 3.567102 -0.093063
v -0.577661 2.117097 -0.022854
v -0.566663 2.108579 0.568512
v -0.693091 2.129966 -0.010334
v -0.578783 2.601386 -0.026181
v -0.987638 0.495390 0.991999
v -0.589060 1.647755 0.582087
v -0.798624 0.996408 0.805017
v -0.342799 3.091424 0.572485
v -0.302891 2.115809 0.781272
v -0.335718 2.602654 0.783006
v -0.693918 2.591271 -0.008943
v -0.688677 2.592880 0.776889
v -0.688464 2.125676 0.776453
v 0.809850 1.164248 -0.707145
v 0.546620 1.653206 -0.572794
v 0.496303 1.645500 -0.880994
v 0.022196 1.165969 -0.706909
v 0.005891 1.157028 -0.573208
v -0.000042 1.623931 -0.583751
v -0.292486 1.643761 -0.884403
v 0.760753 2.124829 -0.876396
v 0.568891 2.112771 -0.564559
v 0.542581 3.083341 -0.573474
v 0.572464 3.068462 -0.298972
v 0.143306 3.565233 -0.864224
v -0.031019 2.595436 -0.886902
v 0.568269 3.068143 0.551560
v 0.114614 2.129107 0.583356
v -0.318069 2.108352 0.580839
v -0.574798 1.653989 -0.216537
v -0.568059 3.550903 -0.568729
v -0.570214 3.551567 -0.054951
v -0.573304 1.010055 0.571899
v -0.311624 1.636828 0.606772
v -0.351570 2.612653 0.576661
v -0.568851 2.609821 0.567035
v 0.839282 3.563446 0.379785
v 0.148186 3.901116 -0.866249
v 0.551505 3.508501 0.570658
v -0.573354 3.500267 0.566596
v -0.570583 3.671541 -0.054723
v -0.632517 3.894693 -0.866535
v 0.558119 3.822042 -0.567014
v 0.577614 3.677096 -0.040529
v 0.838729 3.673131 -0.018331
v -0.636768 3.681347 -0.092290
v 0.172100 3.820897 -0.574424
v 0.669506 3.530921 0.502436
vn 0.0015 0.0264 -0.9997
vn 0.0731 0.9973 -0.0015
vn 0.0240 0.9950 -0.0973
vn 0.0599 0.9982 0.0009
vn 0.0545 -0.9985 0.0052
vn 0.0662 -0.9978 0.0085
vn 0.0018 0.0253 -0.9997
vn 0.0034 -0.0193 -0.9998
vn 0.9500 0.0660 -0.3053
vn 0.9500 0.0654 -0.3054
vn 0.0043 0.0067 -1.0000
vn 0.0160 0.0563 -0.9983
vn 0.0171 0.0561 -0.9983
vn 0.0163 0.0562 -0.9983
vn -0.0136 -0.9976 -0.0684
vn -0.0020 -0.0148 -0.9999
vn -0.0008 -0.0171 -0.9999
vn -0.0024 -0.0148 -0.9999
vn -0.0454 -0.9980 -0.0438
vn -0.0017 0.9980 -0.0636
vn 1.0000 -0.0094 0.0014
vn 1.0000 -0.0088 0.0003
vn 1.0000 -0.0082 0.0014
vn 0.0386 0.0032 -0.9992
vn 0.0660 -0.9978 0.0020
vn 0.0648 -0.9979 -0.0010
vn 0.9989 -0.0122 -0.0461
vn 0.9979 -0.0014 -0.0641
vn 0.0650 -0.9979 0.0025
vn 0.0618 -0.9981 0.0029
vn 1.0000 -0.0084 0.0015
vn 1.0000 -0.0096 0.0015
vn 0.9990 0.0309 -0.0315
vn 0.9991 0.0296 -0.0308
vn 0.9989 0.0244 -0.0394
vn 0.9988 0.0229 -0.0423
vn 0.9989 0.0246 -0.0408
vn 0.0066 -0.0148 -0.9999
vn 0.0123 -0.0148 -0.9998
vn -0.0478 0.9989 -0.0008
vn -0.0473 0.9989 -0.0004
vn -0.0191 0.9995 -0.0241
vn -0.0192 0.9995 -0.0248
vn -0.0021 0.0039 1.0000
vn -0.0005 0.0001 1.0000
vn 0.9999 0.0163 -0.0011
vn 1.0000 -0.0015 0.0044
vn 0.0842 0.9964 0.0021
vn 0.0922 0.9957 -0.0047
vn 0.9910 0.0063 0.1336
vn 0.9915 0.0017 0.1300
vn 0.9915 0.0093 0.1296
vn 0.0040 -0.0005 1.0000
vn 0.5257 -0.0052 0.8507
vn 0.9964 -0.0008 0.0851
vn 0.0261 -0.9981 0.0550
vn 0.0267 -0.9981 0.0547
vn 0.0186 -0.9990 0.0398
vn 0.0179 -0.9990 0.0398
vn 0.9961 -0.0089 0.0883
vn -0.9958 0.0236 0.0883
vn -0.0004 0.0058 1.0000
vn -0.0037 -0.0038 1.0000
vn -0.0010 0.9982 -0.0594
vn -0.0589 0.9983 -0.0008
vn -0.9976 0.0277 -0.0632
vn -0.0020 -0.0044 -1.0000
vn 0.0298 0.0061 -0.9995
vn -0.0144 -0.0064 -0.9999
vn -0.0144 -0.0068 -0.9999
vn -1.0000 -0.0024 -0.0091
vn -0.9998 -0.0002 -0.0201
vn -0.9987 0.0480 -0.0175
vn -0.0618 0.9981 -0.0013
vn -0.0016 0.0218 0.9998
vn -0.9999 0.0149 0.0030
vn -0.9997 0.0251 -0.0000
vn -0.0685 0.9976 0.0023
vn -0.0495 0.0318 0.9983
vn -1.0000 -0.0005 0.0067
vn -1.0000 0.0009 0.0067
vn 0.0010 0.9958 -0.0915
vn 0.9989 -0.0207 -0.0423
vn 0.9956 0.0903 -0.0233
vn 0.9957 0.0888 -0.0257
vn 0.0226 -0.0007 -0.9997
vn -0.0003 -0.0155 -0.9999
vn -0.0022 -0.9938 -0.1109
vn 0.0026 -0.9959 -0.0906
vn -0.0191 -0.0228 -0.9996
vn 0.0022 0.0079 -1.0000
vn -0.0358 -0.9991 -0.0216
vn -0.9992 0.0057 -0.0406
vn 0.0275 -0.0018 -0.9996
vn 0.9987 -0.0481 -0.0175
vn 0.0734 0.9973 0.0070
vn 1.0000 -0.0022 -0.0019
vn 1.0000 -0.0022 -0.0026
vn 0.9957 -0.0793 -0.0484
vn 0.9957 -0.0797 -0.0478
vn 0.9994 -0.0025 -0.0348
vn 0.9994 -0.0053 -0.0343
vn -0.0061 0.0006 -1.0000
vn -0.0062 -0.0046 -1.0000
vn 0.0064 -0.0009 -1.0000
vn 0.0041 0.0019 -1.0000
vn 0.0067 -0.0020 -1.0000
vn -0.0008 0.9996 -0.0299
vn 0.0144 0.9997 -0.0195
vn 0.1779 0.0616 -0.9821
vn 0.1796 0.0558 -0.9822
vn 0.0191 0.0252 -0.9995
vn 0.0034 -0.9991 -0.0428
vn -0.0470 -0.0111 -0.9988
vn -0.0467 -0.0111 -0.9988
vn -0.9991 0.0063 -0.0416
vn -0.0057 -0.0028 -1.0000
vn -0.0401 -0.9986 -0.0331
vn 0.0016 0.0005 -1.0000
vn -0.9990 0.0025 -0.0449
vn 0.0265 -0.0234 -0.9994
vn 1.0000 0.0038 0.0033
vn 1.0000 0.0007 0.0033
vn 0.0942 0.9955 0.0031
vn 0.9998 0.0183 -0.0005
vn 0.0018 0.9968 0.0798
vn 0.9990 -0.0446 0.0056
vn 0.9990 -0.0448 0.0027
vn 0.1099 0.0090 0.9939
vn 0.9998 0.0032 0.0173
vn 0.9998 0.0034 0.0182
vn 0.0622 0.9981 0.0029
vn 0.1771 0.0087 0.9842
vn 0.9999 0.0006 0.0138
vn 0.0107 -0.9968 0.0787
vn 0.0069 -0.9970 0.0773
vn 0.0077 -0.9974 0.0712
vn -0.0140 -0.9939 0.1094
vn -0.0192 -0.9942 0.1060
vn -0.0172 -0.1814 0.9833
vn -0.0181 -0.1813 0.9833
vn 0.0261 -0.0110 0.9996
vn 0.0002 0.0160 0.9999
vn 0.0002 0.0164 0.9999
vn 0.0010 -0.9992 0.0401
vn -0.0051 -0.9992 0.0388
vn 0.9999 0.0004 0.0146
vn 0.9999 0.0008 0.0168
vn 0.9916 0.0081 0.1295
vn 0.9917 0.0022 0.1288
vn 0.0033 0.9986 0.0532
vn 0.2252 0.0143 0.9742
vn 0.2248 0.0216 0.9742
vn 0.9947 0.0068 0.1025
vn -0.0037 0.0128 0.9999
vn 0.0155 -0.0057 0.9999
vn 0.0187 -0.0030 0.9998
vn 0.0124 0.9993 0.0361
vn 0.0007 0.0049 1.0000
vn -0.0027 -0.0058 1.0000
vn 0.9967 -0.0056 0.0807
vn -0.0002 -0.0068 1.0000
vn -0.0038 -0.0067 1.0000
vn -0.9971 -0.0095 0.0759
vn -0.9968 0.0189 0.0775
vn -0.9939 -0.0213 0.1081
vn -0.0282 -0.0014 -0.9996
vn 0.0002 0.9965 -0.0836
vn -0.9999 0.0009 -0.0142
vn -0.9849 -0.1722 0.0182
vn -0.9849 -0.1721 0.0185
vn -0.9994 0.0300 -0.0176
vn -0.0832 0.9965 0.0008
vn -0.2214 -0.0611 -0.9733
vn -0.2214 -0.0615 -0.9732
vn -0.0777 0.0005 -0.9970
vn -0.9997 0.0207 0.0164
vn -0.9996 0.0210 0.0166
vn -0.1483 0.0027 -0.9889
vn -1.0000 -0.0042 -0.0042
vn -0.2290 -0.9734 0.0003
vn 0.0022 -0.0128 0.9999
vn -0.0190 -0.0174 0.9997
vn -0.0931 -0.1347 0.9865
vn -0.0864 0.0535 0.9948
vn -1.0000 -0.0009 -0.0053
vn -1.0000 -0.0010 -0.0026
vn -0.9993 -0.0315 0.0210
vn 0.0006 0.9962 0.0873
vn -0.0013 0.0017 1.0000
vn 0.0010 0.9974 0.0719
vn -0.0261 -0.9989 0.0391
vn -0.9997 -0.0139 0.0184
vn -0.9997 -0.0135 0.0190
vn -1.0000 -0.0018 0.0059
vn -1.0000 -0.0011 0.0047
vn -0.1579 -0.9874 -0.0113
vn -0.1561 -0.9877 -0.0061
vn -0.0126 -0.0044 0.9999
vn 0.0033 0.0062 -1.0000
vn 0.0229 -0.9993 -0.0312
vn 0.0207 -0.9994 -0.0259
vn 0.9999 0.0133 0.0049
vn 0.9996 -0.0288 0.0037
vn 0.0400 -0.9988 -0.0295
vn 0.4129 -0.0037 -0.9108
vn 0.2319 0.0596 -0.9709
vn 0.2344 0.0542 -0.9706
vn 0.0412 0.9082 -0.4166
vn -0.0250 -0.9995 -0.0169
vn -0.0198 -0.9997 -0.0172
vn -0.9991 0.0009 -0.0419
vn -0.0025 0.9994 -0.0351
vn -0.0216 0.0015 -0.9998
vn -0.0217 0.0018 -0.9998
vn -0.9628 -0.0211 -0.2693
vn -0.0216 0.0200 -0.9996
vn -0.0217 0.0203 -0.9996
vn 0.0026 -1.0000 0.0025
vn 0.0931 0.0007 0.9957
vn 1.0000 0.0006 -0.0012
vn 0.0019 0.0019 1.0000
vn -0.0118 -0.9992 -0.0370
vn -0.0027 -0.0122 -0.9999
vn -0.0258 -0.9010 -0.4329
vn 0.0051 -0.9988 -0.0486
vn -0.3738 -0.0483 -0.9263
vn -0.1086 -0.0071 -0.9941
vn -0.1995 -0.9799 0.0047
vn -0.0053 0.9986 0.0534
vn -0.0048 -0.9969 0.0791
vn -0.1113 -0.9938 -0.0048
vn -0.0173 -0.0009 0.9998
vn 0.1205 0.0280 -0.9923
vn 0.0004 -0.0080 -1.0000
vn -0.0004 -0.0060 -1.0000
vn 0.9983 -0.0029 -0.0588
vn 0.2154 0.0040 -0.9765
vn 0.2154 0.0046 -0.9765
vn 0.9945 -0.0458 -0.0941
vn 0.1531 -0.9870 -0.0497
vn 0.0399 -0.9992 -0.0034
vn 0.9997 -0.0229 0.0018
vn 0.9997 -0.0224 0.0012
vn -0.0039 0.0122 0.9999
vn 0.0459 0.0106 -0.9989
vn 0.0405 0.0079 -0.9991
vn -0.0295 -0.0098 -0.9995
vn -0.9944 -0.0204 -0.1037
vn -1.0000 -0.0048 -0.0055
vn 0.4090 -0.0240 0.9122
vn 0.0268 0.0072 0.9996
vn 0.0268 0.0115 0.9996
vn 0.0264 0.0030 0.9996
vn 0.0780 0.9969 -0.0111
vn 0.0771 0.9970 -0.0113
vn 0.3649 0.0015 -0.9310
vn 0.3647 0.0040 -0.9311
vn 0.1209 0.0064 0.9926
vn 0.1209 0.0067 0.9926
vn 0.2195 0.9747 -0.0430
vn -0.9995 -0.0039 -0.0313
vn 0.9987 -0.0148 -0.0497
vn 0.9986 -0.0145 -0.0503
vn 0.9489 -0.0003 -0.3154
vn -0.0081 0.9641 0.2654
vn -0.0085 0.9639 0.2660
vn 1.0000 0.0002 0.0010
vn 0.0551 -0.0059 0.9985
vn 0.0542 -0.0055 0.9985
vn 0.2597 -0.9657 0.0007
vn -0.0011 0.9968 0.0805
vn -0.0018 0.9968 0.0805
vn -0.0011 0.9967 0.0811
vn -1.0000 -0.0009 0.0027
vn -0.0262 0.9979 0.0586
vn -0.0237 0.9980 0.0587
vn -0.1200 0.9928 -0.0059
vn -0.4974 -0.0055 0.8675
vn 0.0816 0.0041 -0.9967
vn 0.0813 0.0047 -0.9967
vn 0.9993 0.0240 -0.0271
vn -0.0315 0.0035 0.9995
vn 0.4916 -0.0151 0.8707
usemtl None
s off
f 4//1 22//1 7//1
f 10//2 93//2 14//2
f 10//3 11//3 93//3
f 7//4 9//4 15//4
f 92//5 6//5 13//5
f 12//6 92//6 13//6
f 22//7 8//7 7//7
f 95//8 18//8 11//8
f 11//9 19//10 93//9
f 98//11 44//11 94//11
f 9//12 96//13 12//14
f 95//15 12//15 96//15
f 21//16 96//17 9//18
f 18//19 97//19 23//19
f 7//20 21//20 9//20
f 24//21 25//22 99//23
f 99//24 26//24 24//24
f 99//25 29//26 100//25
f 36//27 102//27 31//27
f 36//28 27//28 102//28
f 100//29 29//30 28//29
f 99//31 25//32 29//31
f 26//33 37//34 36//33
f 37//35 101//36 36//37
f 44//38 104//39 26//38
f 44//40 48//41 43//40
f 48//42 51//43 43//43
f 54//44 56//45 55//45
f 4//46 7//46 5//46
f 3//47 56//47 1//47
f 3//48 5//48 56//48
f 9//49 16//49 15//49
f 60//50 62//51 63//52
f 63//53 62//53 65//53
f 105//54 67//54 60//54
f 71//55 69//55 70//55
f 68//56 70//57 74//57
f 72//58 68//59 74//58
f 106//60 74//60 73//60
f 86//61 88//61 75//61
f 65//62 73//62 87//62
f 74//63 88//63 87//63
f 7//64 8//64 21//64
f 21//65 8//65 85//65
f 21//66 76//66 108//66
f 1//67 2//67 17//67
f 23//68 77//68 51//68
f 52//69 77//70 53//70
f 108//71 79//71 82//71
f 108//72 82//72 109//72
f 108//73 84//73 80//73
f 21//74 85//74 111//74
f 58//75 15//75 85//75
f 8//76 22//76 85//76
f 22//77 58//77 85//77
f 22//78 83//78 58//78
f 84//79 107//79 80//79
f 89//80 91//81 90//80
f 3//82 17//82 4//82
f 57//83 93//83 28//83
f 9//84 12//85 13//85
f 10//86 92//86 11//86
f 11//87 92//87 95//87
f 95//88 92//88 12//88
f 98//89 94//89 18//89
f 97//90 96//90 23//90
f 44//91 98//91 48//91
f 23//92 98//92 18//92
f 23//93 51//93 98//93
f 99//94 20//94 26//94
f 93//95 100//95 28//95
f 25//96 36//96 31//96
f 66//97 30//97 34//98
f 34//99 30//100 33//100
f 11//101 94//102 19//102
f 26//103 20//103 44//103
f 94//104 44//104 20//104
f 26//105 104//105 37//105
f 37//106 104//107 38//106
f 37//108 50//108 40//108
f 40//109 101//109 37//109
f 101//110 40//110 39//111
f 121//112 39//112 125//112
f 45//113 103//113 42//113
f 46//114 43//114 52//115
f 51//116 48//116 98//116
f 104//117 49//117 38//117
f 52//118 49//118 104//118
f 52//119 51//119 77//119
f 50//120 49//120 52//120
f 40//121 50//121 42//121
f 54//122 1//123 56//123
f 3//124 4//124 5//124
f 5//125 7//125 15//125
f 56//126 5//126 83//126
f 9//127 13//128 16//128
f 57//129 13//129 6//129
f 16//130 13//131 57//130
f 14//132 93//132 57//132
f 60//133 16//133 105//133
f 16//134 57//134 105//134
f 61//135 60//136 63//137
f 112//138 61//138 63//139
f 64//140 16//141 59//140
f 59//142 61//142 112//142
f 58//143 5//144 15//143
f 65//145 112//145 63//146
f 57//147 31//147 105//147
f 28//148 31//148 57//148
f 60//149 67//150 62//150
f 67//151 106//151 62//151
f 68//152 67//153 105//152
f 68//154 71//154 70//154
f 118//155 71//155 117//155
f 106//156 67//156 72//156
f 72//157 67//157 68//157
f 62//158 106//158 73//158
f 73//159 65//159 62//159
f 74//160 70//160 75//160
f 106//161 72//161 74//161
f 87//162 73//162 74//162
f 88//163 74//163 75//163
f 87//164 107//164 112//164
f 86//165 113//165 88//165
f 65//166 87//166 112//166
f 23//167 21//167 77//167
f 22//168 4//168 17//168
f 108//169 109//169 21//169
f 76//170 21//171 64//170
f 108//172 76//172 84//172
f 22//173 17//173 83//173
f 50//174 77//174 47//175
f 77//176 21//176 109//176
f 109//177 82//178 114//177
f 89//179 82//179 81//179
f 114//180 110//180 109//180
f 78//181 109//181 110//181
f 111//182 16//182 64//182
f 84//183 64//183 59//183
f 84//184 59//184 112//184
f 84//185 112//185 107//185
f 124//186 120//186 45//186 78//186
f 64//187 21//187 111//187
f 84//188 76//188 64//188
f 16//189 85//189 15//189
f 83//190 55//190 56//190
f 5//191 58//191 83//191
f 91//192 107//192 87//192
f 79//193 108//194 80//193
f 89//195 81//195 91//196
f 91//197 79//197 80//198
f 91//199 87//199 88//199
f 17//200 3//200 1//200
f 11//201 18//201 94//201
f 100//202 20//202 99//202
f 105//203 31//203 102//203
f 20//204 19//204 94//204
f 100//205 19//205 20//205
f 93//206 19//206 100//206
f 39//207 40//207 42//208
f 41//209 39//209 42//209
f 46//210 52//211 104//211
f 49//212 50//212 38//212
f 50//213 37//213 38//213
f 52//214 43//215 51//215
f 52//216 53//216 50//216
f 47//217 42//218 50//218
f 54//219 55//219 2//219 1//219
f 14//220 57//220 6//220
f 123//221 115//221 32//221
f 69//222 75//222 70//222
f 47//223 109//223 45//223
f 23//224 96//224 21//224
f 53//225 77//225 50//225
f 42//226 47//226 45//226
f 109//227 47//227 77//227
f 82//228 79//228 81//228
f 78//229 45//229 109//229
f 85//230 16//230 111//230
f 107//231 91//231 80//231
f 79//232 91//232 81//232
f 88//233 90//233 91//233
f 35//234 122//234 33//234
f 45//235 120//235 116//235
f 116//236 103//236 45//236
f 121//237 27//237 36//237
f 101//238 121//238 36//239
f 42//240 116//240 125//240
f 33//241 115//241 126//241
f 32//242 115//242 33//242
f 126//243 34//244 33//243
f 118//245 86//245 71//245
f 39//246 121//247 101//247
f 41//248 125//248 39//248
f 97//249 18//249 95//249 96//249
f 118//250 119//250 110//250 114//250
f 117//251 68//251 105//251
f 71//252 68//253 117//254
f 36//255 25//256 24//256 26//256
f 27//257 30//257 66//258 102//257
f 31//259 28//260 29//259 25//259
f 30//261 27//261 35//261 33//261
f 46//262 104//262 44//262 43//262
f 116//263 42//264 103//263
f 41//265 42//265 125//265
f 126//266 115//266 123//267 122//266 121//266 125//266 116//266 120//266 124//266 119//266 118//266 117//266
f 6//268 92//268 10//268 14//268
f 60//269 61//269 59//269 16//270
f 105//271 102//271 66//271 34//271
f 69//272 71//273 86//274 75//272
f 83//275 17//275 2//275 55//275
f 88//276 113//277 114//277 90//277
f 114//278 82//278 89//278 90//278
f 119//279 124//279 78//279 110//279
f 123//280 32//281 33//280 122//280
f 122//282 35//282 27//282 121//282
f 114//283 113//283 86//283 118//283
f 117//284 105//284 34//284 126//284
