# Blender v2.91.0 OBJ File: ''
# www.blender.org
mtllib untitled.mtl
o Cube
v 1.000000 0.428015 -0.428015
v 1.000000 -0.428015 -0.428015
v 1.000000 0.428015 0.428015
v 1.000000 -0.428015 0.428015
v -1.000000 1.000000 -1.000000
v -1.000000 -1.000000 -1.000000
v -1.000000 1.000000 1.000000
v -1.000000 -1.000000 1.000000
v 1.540164 1.000000 -1.540164
v 1.540164 1.000000 1.540164
v -1.540164 1.000000 -1.540164
v -1.540164 1.000000 1.540164
v 1.540164 1.861264 -1.540164
v 1.540164 1.861264 1.540164
v -1.540164 1.861264 -1.540164
v -1.540164 1.861264 1.540164
v 1.540164 1.861264 -1.540164
v 1.540164 1.861264 1.540164
v -1.540164 1.861264 -1.540164
v -1.540164 1.861264 1.540164
v 1.540164 1.861264 -1.540164
v 1.540164 1.861264 1.540164
v -1.540164 1.861264 -1.540164
v -1.540164 1.861264 1.540164
v 0.815338 1.608853 -0.815338
v 0.815338 1.608853 0.815338
v -0.815338 1.608853 -0.815338
v -0.815338 1.608853 0.815338
v 1.465913 -2.093762 -1.465913
v 1.465913 -2.093762 1.465913
v -1.465913 -2.093762 -1.465913
v -1.465913 -2.093762 1.465913
v 0.808809 -3.615426 -0.808809
v 0.808809 -3.615426 0.808809
v -0.808809 -3.615426 -0.808809
v -0.808809 -3.615426 0.808809
v 0.808809 -4.523324 -0.808809
v 0.808809 -4.523324 0.808809
v -0.808809 -4.523324 -0.808809
v -0.808809 -4.523324 0.808809
v 1.579799 -5.684959 -1.579799
v 1.579799 -5.684959 1.579799
v -1.579799 -5.684959 -1.579799
v -1.579799 -5.684959 1.579799
v 1.579799 -7.020537 -1.579799
v 1.579799 -7.020537 1.579799
v -1.579799 -7.020537 -1.579799
v -1.579799 -7.020537 1.579799
v 1.000000 1.000000 -1.000000
v 1.000000 -1.000000 -1.000000
v 1.000000 1.000000 1.000000
v 1.000000 -1.000000 1.000000
v 2.334698 0.211587 -0.211587
v 2.334698 -0.211587 -0.211587
v 2.334698 0.211587 0.211587
v 2.334698 -0.211587 0.211587
v 3.092662 0.211587 -0.211587
v 3.092662 -0.211587 -0.211587
v 3.092662 0.211587 0.211587
v 3.092662 -0.211587 0.211587
v 3.092662 0.365315 -0.365315
v 3.092662 -0.365315 -0.365315
v 3.092662 0.365315 0.365315
v 3.092662 -0.365315 0.365315
v 3.757769 0.365315 -0.365315
v 3.757769 -0.365315 -0.365315
v 3.757769 0.365315 0.365315
v 3.757769 -0.365315 0.365315
v 3.757769 0.202591 -0.202591
v 3.757769 -0.202591 -0.202591
v 3.757769 0.202591 0.202591
v 3.757769 -0.202591 0.202591
v 3.985731 0.202591 -0.202591
v 3.985731 -0.202591 -0.202591
v 3.985731 0.202591 0.202591
v 3.985731 -0.202591 0.202591
vt 0.625000 0.250000
vt 0.625000 0.000000
vt 0.625000 0.000000
vt 0.625000 0.250000
vt 0.375000 0.750000
vt 0.625000 0.750000
vt 0.625000 1.000000
vt 0.375000 1.000000
vt 0.375000 0.000000
vt 0.375000 0.250000
vt 0.375000 0.250000
vt 0.375000 0.000000
vt 0.433453 0.558453
vt 0.566547 0.558453
vt 0.566547 0.558453
vt 0.433453 0.558453
vt 0.625000 0.500000
vt 0.375000 0.500000
vt 0.625000 0.500000
vt 0.625000 0.250000
vt 0.625000 0.500000
vt 0.625000 0.750000
vt 0.625000 1.000000
vt 0.625000 0.000000
vt 0.625000 0.000000
vt 0.625000 0.250000
vt 0.625000 0.750000
vt 0.625000 1.000000
vt 0.625000 0.500000
vt 0.625000 0.250000
vt 0.625000 0.500000
vt 0.625000 0.750000
vt 0.625000 1.000000
vt 0.625000 0.750000
vt 0.625000 0.500000
vt 0.625000 0.750000
vt 0.625000 0.000000
vt 0.625000 1.000000
vt 0.875000 0.500000
vt 0.875000 0.750000
vt 0.625000 0.000000
vt 0.625000 0.250000
vt 0.625000 1.000000
vt 0.375000 0.500000
vt 0.375000 0.750000
vt 0.375000 0.750000
vt 0.375000 0.500000
vt 0.375000 1.000000
vt 0.375000 1.000000
vt 0.375000 1.000000
vt 0.375000 0.750000
vt 0.375000 0.250000
vt 0.375000 0.000000
vt 0.375000 1.000000
vt 0.375000 0.750000
vt 0.375000 0.250000
vt 0.375000 0.000000
vt 0.375000 0.500000
vt 0.375000 0.500000
vt 0.375000 0.750000
vt 0.375000 0.500000
vt 0.375000 0.250000
vt 0.375000 0.000000
vt 0.125000 0.500000
vt 0.125000 0.750000
vt 0.375000 0.250000
vt 0.375000 1.000000
vt 0.375000 0.000000
vt 0.433453 0.691547
vt 0.566547 0.691547
vt 0.433453 0.691547
vt 0.433453 0.558453
vt 0.433453 0.691547
vt 0.566547 0.691547
vt 0.566547 0.558453
vt 0.566547 0.691547
vt 0.566547 0.691547
vt 0.566547 0.558453
vt 0.433453 0.691547
vt 0.433453 0.558453
vt 0.433453 0.558453
vt 0.433453 0.691547
vt 0.566547 0.691547
vt 0.433453 0.691547
vt 0.566547 0.691547
vt 0.566547 0.558453
vt 0.566547 0.558453
vt 0.566547 0.691547
vt 0.566547 0.558453
vt 0.433453 0.558453
vt 0.433453 0.558453
vt 0.433453 0.691547
vn 0.0000 -1.0000 0.0000
vn 0.0000 0.0000 1.0000
vn -1.0000 0.0000 0.0000
vn -0.9200 0.3919 0.0000
vn 0.1601 0.0000 -0.9871
vn 0.0000 0.0000 -1.0000
vn 1.0000 0.0000 0.0000
vn -0.3289 0.9444 0.0000
vn 0.0000 1.0000 0.0000
vn 0.3289 0.9444 0.0000
vn 0.0000 0.9444 -0.3289
vn 0.0000 0.9444 0.3289
vn 0.9181 -0.3964 0.0000
vn 0.9200 0.3919 0.0000
vn 0.0000 0.3919 -0.9200
vn 0.0000 0.3919 0.9200
vn 0.0000 -0.3964 -0.9181
vn 0.0000 -0.3964 0.9181
vn -0.9181 -0.3964 0.0000
vn 0.0000 0.5530 0.8332
vn -0.8332 0.5530 0.0000
vn 0.8332 0.5530 0.0000
vn 0.0000 0.5530 -0.8332
vn 0.1601 -0.9871 0.0000
vn 0.1601 0.0000 0.9871
vn 0.1601 0.9871 0.0000
usemtl Material
s off
f 5/1/1 7/2/1 12/3/1 11/4/1
f 52/5/2 51/6/2 7/7/2 8/8/2
f 8/9/3 7/2/3 5/1/3 6/10/3
f 8/9/4 6/10/4 31/11/4 32/12/4
f 2/13/5 1/14/5 53/15/5 54/16/5
f 6/10/6 5/1/6 49/17/6 50/18/6
f 9/19/6 11/4/6 15/20/6 13/21/6
f 51/6/1 49/17/1 9/19/1 10/22/1
f 49/17/1 5/1/1 11/4/1 9/19/1
f 7/7/1 51/6/1 10/22/1 12/23/1
f 15/20/2 16/24/2 20/25/2 19/26/2
f 10/22/7 9/19/7 13/21/7 14/27/7
f 11/4/3 12/3/3 16/24/3 15/20/3
f 12/23/2 10/22/2 14/27/2 16/28/2
f 17/29/2 19/26/2 23/30/2 21/31/2
f 16/28/2 14/27/2 18/32/2 20/33/2
f 13/21/2 15/20/2 19/26/2 17/29/2
f 14/27/2 13/21/2 17/29/2 18/32/2
f 22/34/8 21/31/8 25/35/8 26/36/8
f 18/32/2 17/29/2 21/31/2 22/34/2
f 19/26/2 20/25/2 24/37/2 23/30/2
f 20/33/2 18/32/2 22/34/2 24/38/2
f 25/35/9 27/39/9 28/40/9 26/36/9
f 23/30/10 24/37/10 28/41/10 27/42/10
f 24/38/11 22/34/11 26/36/11 28/43/11
f 21/31/12 23/30/12 27/42/12 25/35/12
f 29/44/13 30/45/13 34/46/13 33/47/13
f 50/18/14 52/5/14 30/45/14 29/44/14
f 6/10/15 50/18/15 29/44/15 31/11/15
f 52/5/16 8/8/16 32/48/16 30/45/16
f 34/46/2 36/49/2 40/50/2 38/51/2
f 31/11/17 29/44/17 33/47/17 35/52/17
f 30/45/18 32/48/18 36/49/18 34/46/18
f 32/12/19 31/11/19 35/52/19 36/53/19
f 38/51/20 40/50/20 44/54/20 42/55/20
f 36/53/3 35/52/3 39/56/3 40/57/3
f 33/47/7 34/46/7 38/51/7 37/58/7
f 35/52/6 33/47/6 37/58/6 39/56/6
f 41/59/7 42/55/7 46/60/7 45/61/7
f 40/57/21 39/56/21 43/62/21 44/63/21
f 37/58/22 38/51/22 42/55/22 41/59/22
f 39/56/23 37/58/23 41/59/23 43/62/23
f 47/64/1 45/61/1 46/60/1 48/65/1
f 43/62/6 41/59/6 45/61/6 47/66/6
f 42/55/2 44/54/2 48/67/2 46/60/2
f 44/63/3 43/62/3 47/66/3 48/68/3
f 1/14/7 2/13/7 50/18/7 49/17/7
f 4/69/7 3/70/7 51/6/7 52/5/7
f 3/70/7 1/14/7 49/17/7 51/6/7
f 2/13/7 4/69/7 52/5/7 50/18/7
f 56/71/1 54/16/1 58/72/1 60/73/1
f 4/69/24 2/13/24 54/16/24 56/71/24
f 3/70/25 4/69/25 56/71/25 55/74/25
f 1/14/26 3/70/26 55/74/26 53/15/26
f 57/75/3 59/76/3 63/77/3 61/78/3
f 55/74/2 56/71/2 60/73/2 59/76/2
f 53/15/9 55/74/9 59/76/9 57/75/9
f 54/16/6 53/15/6 57/75/6 58/72/6
f 64/79/1 62/80/1 66/81/1 68/82/1
f 58/72/3 57/75/3 61/78/3 62/80/3
f 60/73/3 58/72/3 62/80/3 64/79/3
f 59/76/3 60/73/3 64/79/3 63/77/3
f 67/83/7 68/82/7 72/84/7 71/85/7
f 63/77/2 64/79/2 68/82/2 67/83/2
f 61/78/9 63/77/9 67/83/9 65/86/9
f 62/80/6 61/78/6 65/86/6 66/81/6
f 69/87/9 71/85/9 75/88/9 73/89/9
f 65/86/7 67/83/7 71/85/7 69/87/7
f 66/81/7 65/86/7 69/87/7 70/90/7
f 68/82/7 66/81/7 70/90/7 72/84/7
f 74/91/7 73/89/7 75/88/7 76/92/7
f 70/90/6 69/87/6 73/89/6 74/91/6
f 72/84/1 70/90/1 74/91/1 76/92/1
f 71/85/2 72/84/2 76/92/2 75/88/2
